<svg xmlns="http://www.w3.org/2000/svg" viewBox="0 0 64 80" x="0px" y="0px"><path d="M59,20.15113h-1.45313V58.52125c0,.26807-.14258,.51563-.375,.64941-.23242,.13428-.51953,.1333-.75,0l-2.25098-1.30176c-1.77441-1.02588-5.5-2.74658-10.51758-2.74805-5.02734,0-8.75293,1.72168-10.52637,2.74805l-.75146,.43408c-.23242,.13477-.51855,.13477-.75098,0l-.75098-.43457c-1.77393-1.02539-5.5-2.74609-10.51807-2.74756-5.02637,0-8.75195,1.72168-10.52588,2.74805l-2.25098,1.30225c-.11621,.06689-.24561,.10059-.37549,.10059-.12939,0-.25879-.0332-.37451-.1001-.23242-.13428-.37549-.38184-.37549-.6499V20.15113h-1.45313c-1.5166,0-2.75,1.23389-2.75,2.75V59.00025c0,1.51611,1.2334,2.75,2.75,2.75H59c1.5166,0,2.75-1.23389,2.75-2.75V22.90113c0-1.51611-1.2334-2.75-2.75-2.75Z"/><path d="M31.29248,12.46168c.10547,.30029,.38916,.50146,.70752,.50146s.60205-.20117,.70752-.50146l3.23291-9.21289c.08008-.22949,.04492-.48389-.0957-.68213-.14063-.19873-.36914-.31641-.6123-.31641h-6.46533c-.24316,0-.47119,.11768-.61182,.31641-.14063,.19824-.17627,.45264-.0957,.68213l3.23291,9.21289Z"/><path d="M41.36426,12.55055c.11035,0,.22168-.02441,.3252-.07422l8.7998-4.22852c.21875-.10498,.37305-.31006,.41406-.5498s-.03711-.48438-.20898-.65625l-4.57129-4.57178c-.17188-.17188-.41602-.25049-.65625-.20898-.23926,.04053-.44434,.19531-.5498,.41455l-4.22852,8.80029c-.1377,.28711-.08008,.62988,.14551,.85498,.14355,.14404,.33594,.21973,.53027,.21973Z"/><path d="M13.51123,8.24781l8.80029,4.22852c.10352,.0498,.21436,.07422,.32471,.07422,.19434,0,.38623-.07568,.53027-.21973,.2251-.2251,.28369-.56787,.14551-.85498L19.08301,2.67555c-.10498-.21924-.31006-.37402-.5498-.41455-.23828-.04248-.48438,.03711-.65625,.20898l-4.57129,4.57178c-.17188,.17188-.25,.4165-.20898,.65625,.04053,.23975,.19531,.44482,.41455,.5498Z"/><path d="M32.75,18.59986V56.36579c2.01929-1.11139,5.83575-2.74493,10.89941-2.74493h.00391c5.36816,.00146,9.36426,1.84863,11.26855,2.94971,.23047,.13379,.51758,.13379,.75,0s.375-.38135,.375-.64941V19.9358c0-.25049-.125-.48486-.33398-.62402-1.90234-1.26953-5.92578-3.4209-11.49707-3.55859-5.14288-.11462-9.09595,1.49988-11.46582,2.84668Zm16.91602,26.85693h-12.03516c-.41406,0-.75-.33594-.75-.75s.33594-.75,.75-.75h12.03516c.41406,0,.75,.33594,.75,.75s-.33594,.75-.75,.75Zm0-5.66504h-12.03516c-.41406,0-.75-.33594-.75-.75s.33594-.75,.75-.75h12.03516c.41406,0,.75,.33594,.75,.75s-.33594,.75-.75,.75Zm0-5.66553h-12.03516c-.41406,0-.75-.33594-.75-.75s.33594-.75,.75-.75h12.03516c.41406,0,.75,.33594,.75,.75s-.33594,.75-.75,.75Zm.75-6.41553c0,.41406-.33594,.75-.75,.75h-12.03516c-.41406,0-.75-.33594-.75-.75s.33594-.75,.75-.75h12.03516c.41406,0,.75,.33594,.75,.75Z"/><path d="M8.32861,56.57105c.11572,.06689,.24512,.1001,.37451,.1001,.12988,0,.25928-.03369,.37549-.10059,1.9043-1.10205,5.8999-2.94971,11.27344-2.94971h.00391c5.05817,.0014,8.87439,1.63458,10.89404,2.74518V18.59669c-2.16516-1.23254-5.71295-2.72925-10.33105-2.84351-6.13037-.14111-10.54053,2.16455-12.63184,3.55859-.2085,.13916-.33398,.37305-.33398,.62402V55.92115c0,.26807,.14307,.51563,.37549,.6499Zm6.00488-29.61035h12.03564c.41406,0,.75,.33594,.75,.75s-.33594,.75-.75,.75H14.3335c-.41406,0-.75-.33594-.75-.75s.33594-.75,.75-.75Zm0,5.66553h12.03564c.41406,0,.75,.33594,.75,.75s-.33594,.75-.75,.75H14.3335c-.41406,0-.75-.33594-.75-.75s.33594-.75,.75-.75Zm0,5.66553h12.03564c.41406,0,.75,.33594,.75,.75s-.33594,.75-.75,.75H14.3335c-.41406,0-.75-.33594-.75-.75s.33594-.75,.75-.75Zm0,5.66504h12.03564c.41406,0,.75,.33594,.75,.75s-.33594,.75-.75,.75H14.3335c-.41406,0-.75-.33594-.75-.75s.33594-.75,.75-.75Z"/><text x="0" y="79" fill="#000000" font-size="5px" font-weight="bold" font-family="'Helvetica Neue', Helvetica, Arial-Unicode, Arial, Sans-serif">Created by Gung Yoga</text><text x="0" y="84" fill="#000000" font-size="5px" font-weight="bold" font-family="'Helvetica Neue', Helvetica, Arial-Unicode, Arial, Sans-serif">from the Noun Project</text></svg>